<?xml version="1.0" encoding="iso-8859-1"?>
<!-- Generator: Adobe Illustrator 15.0.0, SVG Export Plug-In . SVG Version: 6.00 Build 0)  -->
<!DOCTYPE svg PUBLIC "-//W3C//DTD SVG 1.1//EN" "http://www.w3.org/Graphics/SVG/1.1/DTD/svg11.dtd">
<svg version="1.1" id="&#x30EC;&#x30A4;&#x30E4;&#x30FC;_1"
	 xmlns="http://www.w3.org/2000/svg" xmlns:xlink="http://www.w3.org/1999/xlink" x="0px" y="0px" width="141.732px"
	 height="141.731px" viewBox="0 0 141.732 141.731" style="enable-background:new 0 0 141.732 141.731;" xml:space="preserve">
<g>
	<path style="fill-rule:evenodd;clip-rule:evenodd;fill:#4F4F4F;" d="M10.235,70.866c0,33.485,27.146,60.631,60.631,60.631
		c33.485,0,60.631-27.146,60.631-60.631c0-33.486-27.146-60.631-60.631-60.631C37.381,10.235,10.235,37.38,10.235,70.866z
		 M38.241,55c0-12.871,14.606-24.699,32.625-24.699S103.492,42.13,103.492,55c0,9.565-8.067,17.786-19.604,21.375
		c-6.987,2.147-6.223,3.219-6.236,4.752v6.093c0,3.172-3.208,5.736-7.213,5.736s-7.25-2.573-7.25-5.746v-9.524
		c0-6.343,9.809-9.008,14.326-10.498l0.072-0.026C84.271,65.233,88.992,60.516,88.992,55c0-7.229-8.115-10.997-18.125-10.997
		C60.857,44.004,52.74,47.771,52.74,55c0,1.946,0.589,3.794,1.646,5.455c0,0,0.121,0.259,0.196,0.381
		c1.547,2.376,0.508,5.855-2.347,7.83c-2.864,1.98-6.531,1.744-8.228-0.572l-0.079,0.058C40.34,64.41,38.241,59.88,38.241,55z
		 M60.923,104.285c0-4.137,4.161-7.143,9.507-7.143s9.508,3.006,9.508,7.143c0,4.14-4.161,7.146-9.508,7.146
		S60.923,108.425,60.923,104.285z"/>
</g>
</svg>
